<?xml version="1.0" encoding="UTF-8"?>
<svg version="1.1" xmlns="http://www.w3.org/2000/svg" width="110" height="105">
<path d="M0 0 C36.3 0 72.6 0 110 0 C110 34.65 110 69.3 110 105 C73.7 105 37.4 105 0 105 C0 70.35 0 35.7 0 0 Z " fill="#4D439E" transform="translate(0,0)"/>
<path d="M0 0 C0 1.98 0 3.96 0 6 C3.96 6 7.92 6 12 6 C12 4.35 12 2.7 12 1 C13.32 0.34 14.64 -0.32 16 -1 C18 1 18 1 18 6 C21.96 6 25.92 6 30 6 C30 4.02 30 2.04 30 0 C31.875 -0.625 31.875 -0.625 34 -1 C36 1 36 1 36.125 3.625 C36.08375 4.40875 36.0425 5.1925 36 6 C37.0725 5.9175 38.145 5.835 39.25 5.75 C43 6 43 6 45.18359375 7.68945312 C49.79284703 13.55262155 48.31961864 24.06123864 47.6328125 31.140625 C46.08987281 38.11242658 40.65696851 42.16134279 35 46 C34.67 45.34 34.34 44.68 34 44 C15.19 44.495 15.19 44.495 -4 45 C-4 45.99 -4 46.98 -4 48 C7.55 48.33 19.1 48.66 31 49 C29.02 51.31 27.04 53.62 25 56 C20.10961479 63.26571517 17.74220958 71.2222361 18 80 C32.24192534 78.28302583 32.24192534 78.28302583 43.5625 70.25 C44.01753906 69.63640625 44.47257812 69.0228125 44.94140625 68.390625 C45.46541016 67.70226562 45.46541016 67.70226562 46 67 C46.33 67 46.66 67 47 67 C47.13526616 69.5850867 47.23417653 72.16308752 47.3125 74.75 C47.35439453 75.47960937 47.39628906 76.20921875 47.43945312 76.9609375 C47.51780091 80.40824001 47.411368 82.49058283 45.21362305 85.2121582 C40.2972439 87.94729795 35.62963995 87.55172896 30.09375 87.49609375 C28.35756409 87.4982766 28.35756409 87.4982766 26.58630371 87.50050354 C24.14198283 87.4988454 21.69765141 87.48729383 19.25341797 87.46655273 C15.51354592 87.43760485 11.7750921 87.44594552 8.03515625 87.45898438 C5.65884728 87.45274663 3.28254279 87.44435542 0.90625 87.43359375 C-0.2115686 87.43652939 -1.32938721 87.43946503 -2.4810791 87.44248962 C-3.52566284 87.42980545 -4.57024658 87.41712128 -5.64648438 87.40405273 C-6.5618396 87.39864975 -7.47719482 87.39324677 -8.42028809 87.38768005 C-11.54445639 86.91817889 -13.44740413 85.83289069 -16 84 C-17.4734159 81.0531682 -17.1517686 78.40894894 -17.17700195 75.11938477 C-17.18685875 74.05815903 -17.18685875 74.05815903 -17.19691467 72.97549438 C-17.21665041 70.63079732 -17.22830909 68.28616421 -17.23828125 65.94140625 C-17.24235678 65.1416078 -17.2464323 64.34180935 -17.25063133 63.51777458 C-17.27149048 59.28683606 -17.28579441 55.05592999 -17.29516602 50.82495117 C-17.30624698 46.44868031 -17.3406662 42.07291563 -17.38033772 37.69682407 C-17.40643915 34.33655327 -17.41485191 30.97640445 -17.41844749 27.61604118 C-17.42332811 26.00244657 -17.43498389 24.38885793 -17.45348549 22.77536201 C-17.4777471 20.51983175 -17.47693694 18.26562963 -17.4699707 16.01000977 C-17.47583694 14.72586685 -17.48170319 13.44172394 -17.48774719 12.1186676 C-17 9 -17 9 -15.20500183 7.07359314 C-12.09441486 5.55907973 -9.40515312 5.80354886 -6 6 C-6 4.02 -6 2.04 -6 0 C-3.50907189 -1.24546405 -2.58919267 -0.7767578 0 0 Z " fill="#F8F8FB" transform="translate(32,10)"/>
<path d="M0 0 C4.29238623 1.65091778 6.8793915 4.73754566 10 8 C7.53770316 14.08090581 1.92945054 18.63888212 -2.60009766 23.24536133 C-3.77556053 24.44879602 -4.94114242 25.66196853 -6.09619141 26.88500977 C-13.33529476 34.54817403 -18.97764813 39.96547892 -30 41 C-28.35174258 31.49082257 -25.67758378 26.36317164 -18.75 19.6875 C-14.45890458 15.48184675 -10.32668983 11.23864738 -6.43359375 6.65625 C-4.40393442 4.31135747 -2.22564049 2.15819683 0 0 Z " fill="#F6F5F9" transform="translate(85,44)"/>
<path d="M0 0 C1.60279192 0.00015914 3.20558896 0.00585476 4.80834961 0.01586914 C5.65038437 0.01728409 6.49241913 0.01869904 7.35997009 0.02015686 C10.06024671 0.02577276 12.76044163 0.03832791 15.46069336 0.05102539 C17.28686404 0.05603834 19.11303602 0.06060161 20.93920898 0.06469727 C25.42556878 0.07574735 29.9118672 0.0930226 34.39819336 0.11352539 C34.39819336 1.43352539 34.39819336 2.75352539 34.39819336 4.11352539 C33.73819336 4.11352539 33.07819336 4.11352539 32.39819336 4.11352539 C32.39819336 4.77352539 32.39819336 5.43352539 32.39819336 6.11352539 C33.05819336 6.11352539 33.71819336 6.11352539 34.39819336 6.11352539 C35.12866211 7.89868164 35.12866211 7.89868164 35.39819336 10.11352539 C33.88647461 11.79711914 33.88647461 11.79711914 31.71069336 13.55102539 C26.36699373 18.48295132 25.00153928 24.19382194 23.39819336 31.11352539 C30.26987231 29.19532273 35.94182508 27.48088617 40.99584961 22.28540039 C42.39819336 21.11352539 42.39819336 21.11352539 45.39819336 21.11352539 C45.0646113 24.89412209 43.90361507 27.81868338 41.37866211 30.69165039 C35.14807459 35.16489271 25.87125091 36.31752302 18.39819336 37.11352539 C17.90319336 36.61852539 17.90319336 36.61852539 17.39819336 36.11352539 C17.59611986 33.04566466 17.91789459 30.14207596 18.39819336 27.11352539 C18.53741211 26.22536133 18.67663086 25.33719727 18.82006836 24.42211914 C20.71151211 15.43776131 23.471884 13.80942468 30.39819336 6.11352539 C19.17819336 5.78352539 7.95819336 5.45352539 -3.60180664 5.11352539 C-3.93180664 3.79352539 -4.26180664 2.47352539 -4.60180664 1.11352539 C-3.60180664 0.11352539 -3.60180664 0.11352539 0 0 Z " fill="#544C9D" transform="translate(31.601806640625,53.886474609375)"/>
<path d="M0 0 C1.60279192 0.00015914 3.20558896 0.00585476 4.80834961 0.01586914 C5.65038437 0.01728409 6.49241913 0.01869904 7.35997009 0.02015686 C10.06024671 0.02577276 12.76044163 0.03832791 15.46069336 0.05102539 C17.28686404 0.05603834 19.11303602 0.06060161 20.93920898 0.06469727 C25.42556878 0.07574735 29.9118672 0.0930226 34.39819336 0.11352539 C34.39819336 1.43352539 34.39819336 2.75352539 34.39819336 4.11352539 C33.73819336 4.11352539 33.07819336 4.11352539 32.39819336 4.11352539 C32.06819336 5.43352539 31.73819336 6.75352539 31.39819336 8.11352539 C30.73819336 7.78352539 30.07819336 7.45352539 29.39819336 7.11352539 C29.72819336 6.78352539 30.05819336 6.45352539 30.39819336 6.11352539 C19.17819336 5.78352539 7.95819336 5.45352539 -3.60180664 5.11352539 C-3.93180664 3.79352539 -4.26180664 2.47352539 -4.60180664 1.11352539 C-3.60180664 0.11352539 -3.60180664 0.11352539 0 0 Z " fill="#7A6ECE" transform="translate(31.601806640625,53.886474609375)"/>
<path d="M0 0 C1.56047445 0.00015913 3.12095416 0.00585397 4.68139648 0.01586914 C5.91115456 0.01799156 5.91115456 0.01799156 7.16575623 0.02015686 C9.79470406 0.0257725 12.42356797 0.0383276 15.05249023 0.05102539 C16.8304838 0.05603838 18.60847869 0.06060163 20.38647461 0.06469727 C24.75434569 0.07574701 29.12215371 0.09302208 33.48999023 0.11352539 C34.05249023 2.05102539 34.05249023 2.05102539 34.48999023 4.11352539 C33.48999023 5.11352539 33.48999023 5.11352539 29.97998047 5.22705078 C28.41950602 5.22689165 26.85902631 5.22119681 25.29858398 5.21118164 C24.47874527 5.20976669 23.65890656 5.20835175 22.81422424 5.20689392 C20.18527641 5.20127828 17.5564125 5.18872318 14.92749023 5.17602539 C13.14949667 5.1710124 11.37150177 5.16644915 9.59350586 5.16235352 C5.22563478 5.15130378 0.85782676 5.1340287 -3.51000977 5.11352539 C-4.07250977 3.17602539 -4.07250977 3.17602539 -4.51000977 1.11352539 C-3.51000977 0.11352539 -3.51000977 0.11352539 0 0 Z " fill="#7F70E1" transform="translate(31.510009765625,37.886474609375)"/>
<path d="M0 0 C2.865196 1.3571981 4.46748153 2.58164204 6.375 5.125 C6.9375 7.5625 6.9375 7.5625 6.375 10.125 C3.875 12.9375 3.875 12.9375 1.375 15.125 C-1.83543882 13.74311547 -3.67436365 12.20078097 -5.875 9.5 C-6.39578125 8.86835937 -6.9165625 8.23671875 -7.453125 7.5859375 C-7.83984375 7.10382812 -8.2265625 6.62171875 -8.625 6.125 C-3.60342968 0.17159189 -3.60342968 0.17159189 0 0 Z " fill="#F5F4F9" transform="translate(97.625,33.875)"/>
<path d="M0 0 C5.94 0 11.88 0 18 0 C18 1.32 18 2.64 18 4 C12.06 4 6.12 4 0 4 C0 2.68 0 1.36 0 0 Z " fill="#7867D1" transform="translate(28,71)"/>
<path d="M0 0 C0.99 0.33 1.98 0.66 3 1 C2.01 2.485 2.01 2.485 1 4 C12.88 4 24.76 4 37 4 C37 4.33 37 4.66 37 5 C24.79 5 12.58 5 0 5 C-0.33 3.68 -0.66 2.36 -1 1 C-0.67 0.67 -0.34 0.34 0 0 Z " fill="#887AE4" transform="translate(28,38)"/>
<path d="M0 0 C1.66611905 -0.042721 3.33382885 -0.04063832 5 0 C6 1 6 1 6.0625 3.5625 C6.041875 4.366875 6.02125 5.17125 6 6 C3.625 6.625 3.625 6.625 1 7 C0.34 6.34 -0.32 5.68 -1 5 C-0.625 2.375 -0.625 2.375 0 0 Z " fill="#766AD7" transform="translate(44,20)"/>
<path d="M0 0 C1.66611905 -0.042721 3.33382885 -0.04063832 5 0 C6 1 6 1 6.0625 3.5625 C6.041875 4.366875 6.02125 5.17125 6 6 C3.625 6.625 3.625 6.625 1 7 C0.34 6.34 -0.32 5.68 -1 5 C-0.625 2.375 -0.625 2.375 0 0 Z " fill="#7469D4" transform="translate(62,20)"/>
<path d="M0 0 C1.2065625 0.0309375 1.2065625 0.0309375 2.4375 0.0625 C3.0625 2.4375 3.0625 2.4375 3.4375 5.0625 C2.7775 5.7225 2.1175 6.3825 1.4375 7.0625 C-1.1875 6.6875 -1.1875 6.6875 -3.5625 6.0625 C-3.605221 4.39638095 -3.60313832 2.72867115 -3.5625 1.0625 C-2.5625 0.0625 -2.5625 0.0625 0 0 Z " fill="#7A6EDA" transform="translate(29.5625,19.9375)"/>
<path d="M0 0 C0.33 0 0.66 0 1 0 C1 1.65 1 3.3 1 5 C-2.96 5 -6.92 5 -11 5 C-10.67 3.68 -10.34 2.36 -10 1 C-9.67 1.99 -9.34 2.98 -9 4 C-4.03088634 2.87302957 -4.03088634 2.87302957 0 0 Z " fill="#6359BC" transform="translate(61,11)"/>
<path d="M0 0 C0.99 0 1.98 0 3 0 C3 1.32 3 2.64 3 4 C2.34 4 1.68 4 1 4 C0.67 5.32 0.34 6.64 0 8 C-0.66 7.67 -1.32 7.34 -2 7 C-1.34 4.69 -0.68 2.38 0 0 Z " fill="#675DB5" transform="translate(63,54)"/>
<path d="M0 0 C1.32 1.32 2.64 2.64 4 4 C2.35 4.33 0.7 4.66 -1 5 C-1.33 3.68 -1.66 2.36 -2 1 C-1.34 0.67 -0.68 0.34 0 0 Z " fill="#695DB5" transform="translate(92,44)"/>
</svg>
